<?xml version="1.0" encoding="utf-8"?>
<!-- Generator: Adobe Illustrator 17.0.0, SVG Export Plug-In . SVG Version: 6.00 Build 0)  -->
<!DOCTYPE svg PUBLIC "-//W3C//DTD SVG 1.1//EN" "http://www.w3.org/Graphics/SVG/1.1/DTD/svg11.dtd">
<svg version="1.1" xmlns="http://www.w3.org/2000/svg" xmlns:xlink="http://www.w3.org/1999/xlink" x="0px" y="0px"
	 width="214.39px" height="180.78px" viewBox="0 0 214.39 180.78" enable-background="new 0 0 214.39 180.78" xml:space="preserve">
<g id="win_3" display="none">
	
		<rect x="46.807" y="32.779" display="inline" fill="#FFFFFF" stroke="#706F6F" stroke-width="0.9801" stroke-miterlimit="10" width="166.618" height="147.016"/>
	<rect x="55.647" y="42.386" display="inline" fill="#CDE8F9" width="149.091" height="128.231"/>
	<g display="inline">
		
			<line fill="none" stroke="#9D9D9C" stroke-width="0.4901" stroke-miterlimit="10" x1="78.353" y1="44.639" x2="97.332" y2="167.965"/>
		
			<line fill="none" stroke="#9D9D9C" stroke-width="0.4901" stroke-miterlimit="10" x1="58.927" y1="167.614" x2="78.353" y2="44.639"/>
		
			<line fill="none" stroke="#9D9D9C" stroke-width="0.4901" stroke-miterlimit="10" x1="97.574" y1="105.902" x2="58.78" y2="44.639"/>
		
			<line fill="none" stroke="#9D9D9C" stroke-width="0.4901" stroke-miterlimit="10" x1="97.574" y1="105.902" x2="58.927" y2="168.144"/>
	</g>
	<g display="inline">
		
			<line fill="none" stroke="#9D9D9C" stroke-width="0.4901" stroke-miterlimit="10" x1="162.422" y1="167.677" x2="181.37" y2="44.932"/>
		
			<line fill="none" stroke="#9D9D9C" stroke-width="0.4901" stroke-miterlimit="10" x1="181.37" y1="44.932" x2="200.796" y2="167.907"/>
		
			<line fill="none" stroke="#9D9D9C" stroke-width="0.4901" stroke-miterlimit="10" x1="200.944" y1="44.932" x2="162.149" y2="106.195"/>
		
			<line fill="none" stroke="#9D9D9C" stroke-width="0.4901" stroke-miterlimit="10" x1="200.945" y1="168.144" x2="162.149" y2="106.195"/>
	</g>
	<path display="inline" fill="#FFFFFF" stroke="#706F6F" stroke-width="0.9789" stroke-miterlimit="10" d="M155.792,38.756V174.01
		h51.683V38.756H155.792z M201.208,168.144h-39.204V44.651h39.204V168.144z"/>
	<path display="inline" fill="#FFFFFF" stroke="#706F6F" stroke-width="0.9789" stroke-miterlimit="10" d="M52.335,38.756V174.01
		h51.683V38.756H52.335z M97.75,168.144H58.546V44.651H97.75V168.144z"/>
	<rect x="201.665" y="56.561" display="inline" fill="#706F6F" width="1.47" height="11.761"/>
	<rect x="201.615" y="144.48" display="inline" fill="#706F6F" width="1.47" height="11.761"/>
	<path display="inline" fill="#FFFFFF" stroke="#706F6F" stroke-width="0.9789" stroke-miterlimit="10" d="M104.007,38.756V174.01
		h51.683V38.756H104.007z M149.422,168.144h-39.204V44.651h39.204V168.144z"/>
	<path display="inline" fill="#FFFFFF" stroke="#706F6F" stroke-width="0.4901" stroke-miterlimit="10" d="M102.029,113.594
		c0,0.875-0.48,1.585-1.074,1.585l0,0c-0.593,0-1.074-0.71-1.074-1.585V98.796c0-0.875,0.48-1.585,1.074-1.585l0,0
		c0.593,0,1.074,0.71,1.074,1.585V113.594z"/>
	<rect x="50.407" y="56.55" display="inline" fill="#706F6F" width="1.47" height="11.761"/>
	<rect x="50.357" y="144.47" display="inline" fill="#706F6F" width="1.47" height="11.761"/>
	<path display="inline" fill="#FFFFFF" stroke="#706F6F" stroke-width="0.4901" stroke-miterlimit="10" d="M159.985,113.594
		c0,0.875-0.48,1.585-1.074,1.585l0,0c-0.593,0-1.074-0.71-1.074-1.585V98.796c0-0.875,0.48-1.585,1.074-1.585l0,0
		c0.593,0,1.074,0.71,1.074,1.585V113.594z"/>
	<g>
		<line display="inline" fill="#999999" x1="46.807" y1="15.174" x2="213.275" y2="15.174"/>
		<g display="inline">
			
				<line fill="none" stroke="#9D9D9C" stroke-width="0.4901" stroke-miterlimit="10" x1="51.148" y1="15.174" x2="208.933" y2="15.174"/>
			<g>
				<polygon fill="#9D9D9C" points="52.12,16.598 46.807,15.174 52.12,13.751 				"/>
			</g>
			<g>
				<polygon fill="#9D9D9C" points="207.962,16.598 213.275,15.174 207.962,13.751 				"/>
			</g>
		</g>
	</g>
	<g>
		<line display="inline" fill="#999999" x1="29.412" y1="179.795" x2="29.412" y2="32.539"/>
		<g display="inline">
			
				<line fill="none" stroke="#9D9D9C" stroke-width="0.4609" stroke-miterlimit="10" x1="29.412" y1="175.711" x2="29.412" y2="36.623"/>
			<g>
				<polygon fill="#9D9D9C" points="30.751,174.798 29.412,179.794 28.073,174.798 				"/>
			</g>
			<g>
				<polygon fill="#9D9D9C" points="30.751,37.536 29.412,32.539 28.073,37.536 				"/>
			</g>
		</g>
	</g>
	<text transform="matrix(1 0 0 1 120.9336 5.632)" fill="#646464" font-family="'Montserrat-Regular'" font-size="7.9525">1700</text>
	
		<text transform="matrix(4.489660e-11 -1 1 4.489660e-11 19.8487 114.1086)" fill="#646464" font-family="'Montserrat-Regular'" font-size="7.9525">1500</text>
</g>
<g id="win_2" display="none">
	
		<rect x="47.051" y="33.022" display="inline" fill="#FFFFFF" stroke="#706F6F" stroke-width="0.9785" stroke-miterlimit="10" width="166.339" height="146.769"/>
	<rect x="55.877" y="42.613" display="inline" fill="#CDE8F9" width="148.841" height="128.016"/>
	<path display="inline" fill="#FFFFFF" stroke="#706F6F" stroke-width="0.9773" stroke-miterlimit="10" d="M155.854,38.989v135.028
		h51.597V38.989H155.854z M201.193,168.161h-39.139V44.874h39.139V168.161z"/>
	<path display="inline" fill="#FFFFFF" stroke="#706F6F" stroke-width="0.9773" stroke-miterlimit="10" d="M52.57,38.989v135.028
		h51.597V38.989H52.57z M97.909,168.161H58.771V44.874h39.139V168.161z"/>
	
		<line display="inline" fill="none" stroke="#9D9D9C" stroke-width="0.4892" stroke-miterlimit="10" x1="110.81" y1="167.694" x2="129.954" y2="45.155"/>
	
		<line display="inline" fill="none" stroke="#9D9D9C" stroke-width="0.4892" stroke-miterlimit="10" x1="129.954" y1="45.155" x2="149.01" y2="167.694"/>
	
		<line display="inline" fill="none" stroke="#9D9D9C" stroke-width="0.4892" stroke-miterlimit="10" x1="149.495" y1="45.155" x2="110.523" y2="106.383"/>
	
		<line display="inline" fill="none" stroke="#9D9D9C" stroke-width="0.4892" stroke-miterlimit="10" x1="149.01" y1="167.694" x2="110.523" y2="106.383"/>
	<rect x="156.366" y="56.764" display="inline" fill="#706F6F" width="1.468" height="11.742"/>
	<rect x="156.316" y="144.536" display="inline" fill="#706F6F" width="1.468" height="11.742"/>
	<path display="inline" fill="#FFFFFF" stroke="#706F6F" stroke-width="0.9773" stroke-miterlimit="10" d="M104.155,38.989v135.028
		h51.597V38.989H104.155z M149.495,168.161h-39.139V44.874h39.139V168.161z"/>
	<path display="inline" fill="#FFFFFF" stroke="#706F6F" stroke-width="0.4892" stroke-miterlimit="10" d="M108.334,113.702
		c0,0.874-0.48,1.583-1.072,1.583l0,0c-0.592,0-1.072-0.709-1.072-1.583V98.928c0-0.874,0.48-1.583,1.072-1.583l0,0
		c0.592,0,1.072,0.709,1.072,1.583V113.702z"/>
	<g display="inline">
		<line fill="#999999" x1="47.051" y1="18.447" x2="213.24" y2="18.447"/>
		<g>
			
				<line fill="none" stroke="#9D9D9C" stroke-width="0.4892" stroke-miterlimit="10" x1="51.386" y1="18.447" x2="208.906" y2="18.447"/>
			<g>
				<polygon fill="#9D9D9C" points="52.355,19.869 47.051,18.447 52.355,17.026 				"/>
			</g>
			<g>
				<polygon fill="#9D9D9C" points="207.937,19.869 213.24,18.447 207.937,17.026 				"/>
			</g>
		</g>
	</g>
	<g display="inline">
		<line fill="#999999" x1="32.686" y1="179.791" x2="32.686" y2="32.783"/>
		<g>
			
				<line fill="none" stroke="#9D9D9C" stroke-width="0.4601" stroke-miterlimit="10" x1="32.686" y1="175.715" x2="32.686" y2="36.859"/>
			<g>
				<polygon fill="#9D9D9C" points="34.022,174.803 32.686,179.791 31.349,174.803 				"/>
			</g>
			<g>
				<polygon fill="#9D9D9C" points="34.022,37.771 32.686,32.783 31.349,37.771 				"/>
			</g>
		</g>
	</g>
	
		<text transform="matrix(1 0 0 1 115.2726 9.9206)" display="inline" fill="#646464" font-family="'Montserrat-Regular'" font-size="13">1700</text>
	
		<text transform="matrix(4.489660e-11 -1 1 4.489660e-11 24.1378 121.2166)" display="inline" fill="#646464" font-family="'Montserrat-Regular'" font-size="13">1500</text>
</g>
<g id="win_1">
	
		<rect x="66.517" y="33.002" fill="#FFFFFF" stroke="#706F6F" stroke-width="0.9198" stroke-miterlimit="10" width="146.873" height="146.873"/>
	<rect x="75.349" y="42.6" fill="#CDE8F9" width="128.432" height="128.106"/>
	<path fill="#FFFFFF" stroke="#706F6F" stroke-width="1.1181" stroke-miterlimit="10" d="M72.04,38.974v135.123h67.493V38.974H72.04
		z M133.658,168.236H78.245V44.863h55.413V168.236z"/>
	
		<line fill="none" stroke="#9D9D9C" stroke-width="0.4896" stroke-miterlimit="10" x1="145.837" y1="168.236" x2="173.384" y2="44.82"/>
	
		<line fill="none" stroke="#9D9D9C" stroke-width="0.4896" stroke-miterlimit="10" x1="173.384" y1="44.82" x2="200.543" y2="168.236"/>
	
		<line fill="none" stroke="#9D9D9C" stroke-width="0.4896" stroke-miterlimit="10" x1="200.874" y1="45.144" x2="145.837" y2="106.572"/>
	
		<line fill="none" stroke="#9D9D9C" stroke-width="0.4896" stroke-miterlimit="10" x1="200.543" y1="168.236" x2="145.837" y2="106.572"/>
	<rect x="207.905" y="56.762" fill="#706F6F" width="1.469" height="11.75"/>
	<rect x="207.898" y="144.595" fill="#706F6F" width="1.469" height="11.75"/>
	<path fill="#FFFFFF" stroke="#706F6F" stroke-width="1.1214" stroke-miterlimit="10" d="M139.532,38.974v135.123h67.889V38.974
		H139.532z M201.159,168.236h-55.752V44.863h55.752V168.236z"/>
	<path fill="#FFFFFF" stroke="#706F6F" stroke-width="0.4896" stroke-miterlimit="10" d="M143.557,113.739
		c0,0.874-0.48,1.584-1.073,1.584l0,0c-0.592,0-1.073-0.709-1.073-1.584V98.955c0-0.874,0.48-1.584,1.073-1.584l0,0
		c0.592,0,1.073,0.709,1.073,1.584V113.739z"/>
	<g>
		<line fill="#999999" x1="66.517" y1="15.415" x2="213.39" y2="15.415"/>
		<g>
			
				<line fill="none" stroke="#9D9D9C" stroke-width="0.4601" stroke-miterlimit="10" x1="70.593" y1="15.415" x2="209.314" y2="15.415"/>
			<g>
				<polygon fill="#9D9D9C" points="71.505,16.752 66.517,15.415 71.505,14.079 				"/>
			</g>
			<g>
				<polygon fill="#9D9D9C" points="208.402,16.752 213.39,15.415 208.402,14.079 				"/>
			</g>
		</g>
	</g>
	<g>
		<line fill="#999999" x1="49.139" y1="179.875" x2="49.139" y2="32.763"/>
		<g>
			
				<line fill="none" stroke="#9D9D9C" stroke-width="0.4605" stroke-miterlimit="10" x1="49.139" y1="175.796" x2="49.139" y2="36.842"/>
			<g>
				<polygon fill="#9D9D9C" points="50.477,174.883 49.139,179.875 47.802,174.883 				"/>
			</g>
			<g>
				<polygon fill="#9D9D9C" points="50.477,37.755 49.139,32.763 47.802,37.755 				"/>
			</g>
		</g>
	</g>
	<text transform="matrix(1 0 0 1 124.8979 10.0071)" fill="#646464" font-family="'Montserrat-Regular'" font-size="13">1500</text>
	
		<text transform="matrix(4.489659e-11 -1 1 4.489659e-11 40.5916 121.0028)" fill="#646464" font-family="'Montserrat-Regular'" font-size="13">1500</text>
</g>
<g id="Слой_3" display="none">
	
		<rect x="66.587" y="-5.828" display="inline" fill="#FFFFFF" stroke="#706F6F" stroke-width="1.0342" stroke-miterlimit="10" width="146.741" height="185.872"/>
	<rect x="75.411" y="50.69" display="inline" fill="#CDE8F9" width="128.317" height="120.194"/>
	<path display="inline" fill="#FFFFFF" stroke="#706F6F" stroke-width="1.0878" stroke-miterlimit="10" d="M72.104,45.978v128.004
		h67.432V45.978H72.104z M133.667,168.302H78.304V51.761h55.363V168.302z"/>
	
		<line display="inline" fill="none" stroke="#9D9D9C" stroke-width="0.4891" stroke-miterlimit="10" x1="145.921" y1="168.302" x2="173.013" y2="52.172"/>
	
		<line display="inline" fill="none" stroke="#9D9D9C" stroke-width="0.4891" stroke-miterlimit="10" x1="173.013" y1="52.172" x2="200.589" y2="167.88"/>
	
		<line display="inline" fill="none" stroke="#9D9D9C" stroke-width="0.4891" stroke-miterlimit="10" x1="201.108" y1="51.761" x2="145.745" y2="109.935"/>
	
		<line display="inline" fill="none" stroke="#9D9D9C" stroke-width="0.4891" stroke-miterlimit="10" x1="200.852" y1="168.165" x2="145.745" y2="109.935"/>
	<rect x="207.848" y="59.587" display="inline" fill="#706F6F" width="1.467" height="11.739"/>
	<rect x="207.842" y="144.796" display="inline" fill="#706F6F" width="1.467" height="11.739"/>
	<path display="inline" fill="#FFFFFF" stroke="#706F6F" stroke-width="1.091" stroke-miterlimit="10" d="M139.537,45.978v128.004
		h67.828V45.978H139.537z M201.108,168.302h-55.702V51.761h55.702V168.302z"/>
	<path display="inline" fill="#FFFFFF" stroke="#706F6F" stroke-width="0.4891" stroke-miterlimit="10" d="M143.558,117.419
		c0,0.874-0.479,1.582-1.072,1.582l0,0c-0.592,0-1.072-0.709-1.072-1.582v-14.771c0-0.874,0.479-1.582,1.072-1.582l0,0
		c0.592,0,1.072,0.709,1.072,1.582V117.419z"/>
	
		<rect x="72.457" y="0.042" display="inline" fill="#CDE8F9" stroke="#706F6F" stroke-width="0.9918" stroke-miterlimit="10" width="134.908" height="40.066"/>
	<g id="размер_ширина" display="inline">
		<g>
			<line fill="#999999" x1="66.587" y1="-23.223" x2="213.328" y2="-23.223"/>
			<g>
				
					<line fill="none" stroke="#9D9D9C" stroke-width="0.4597" stroke-miterlimit="10" x1="70.659" y1="-23.223" x2="209.256" y2="-23.223"/>
				<g>
					<polygon fill="#9D9D9C" points="71.57,-21.888 66.587,-23.223 71.57,-24.559 					"/>
				</g>
				<g>
					<polygon fill="#9D9D9C" points="208.345,-21.888 213.328,-23.223 208.345,-24.559 					"/>
				</g>
			</g>
		</g>
		<text transform="matrix(1 0 0 1 125.9118 -32.7503)" fill="#646464" font-family="'Montserrat-Regular'" font-size="13">1500</text>
	</g>
	<g id="размер_высота_1" display="inline">
		<g>
			<line fill="#999999" x1="19.223" y1="180.78" x2="19.223" y2="-5.828"/>
			<g>
				
					<line fill="none" stroke="#9D9D9C" stroke-width="0.5184" stroke-miterlimit="10" x1="19.223" y1="176.188" x2="19.223" y2="-1.235"/>
				<g>
					<polygon fill="#9D9D9C" points="20.729,175.16 19.223,180.78 17.717,175.16 					"/>
				</g>
				<g>
					<polygon fill="#9D9D9C" points="20.729,-0.208 19.223,-5.828 17.717,-0.208 					"/>
				</g>
			</g>
		</g>
		
			<text transform="matrix(4.489659e-11 -1 1 4.489659e-11 9.6778 101.8888)" fill="#646464" font-family="'Montserrat-Regular'" font-size="13">1900</text>
	</g>
	<g id="размер_высота_2" display="inline">
		<g>
			<line fill="#999999" x1="49.224" y1="40.108" x2="49.224" y2="-5.828"/>
			<g>
				
					<line fill="none" stroke="#9D9D9C" stroke-width="0.5187" stroke-miterlimit="10" x1="49.224" y1="35.512" x2="49.224" y2="-1.232"/>
				<g>
					<polygon fill="#9D9D9C" points="50.731,34.484 49.224,40.108 47.717,34.484 					"/>
				</g>
				<g>
					<polygon fill="#9D9D9C" points="50.731,-0.204 49.224,-5.828 47.717,-0.204 					"/>
				</g>
			</g>
		</g>
		
			<text transform="matrix(4.489659e-11 -1 1 4.489659e-11 39.6797 31.8844)" fill="#646464" font-family="'Montserrat-Regular'" font-size="13">500</text>
	</g>
</g>
</svg>
