<?xml version="1.0" encoding="utf-8"?>
<!-- Generator: Adobe Illustrator 17.0.0, SVG Export Plug-In . SVG Version: 6.00 Build 0)  -->
<!DOCTYPE svg PUBLIC "-//W3C//DTD SVG 1.1//EN" "http://www.w3.org/Graphics/SVG/1.1/DTD/svg11.dtd">
<svg version="1.1" id="Слой_1" xmlns="http://www.w3.org/2000/svg" xmlns:xlink="http://www.w3.org/1999/xlink" x="0px" y="0px"
	 width="230px" height="270px" viewBox="0 0 230 270" enable-background="new 0 0 230 270" xml:space="preserve">
<rect x="62.606" y="63.49" fill="#FFFFFF" stroke="#706F6F" stroke-width="0.9786" stroke-miterlimit="10" width="68.503" height="205.51"/>
<rect x="68.704" y="210.283" fill="#FFFFFF" stroke="#706F6F" stroke-width="0.9794" stroke-linecap="round" stroke-miterlimit="10" width="56.534" height="52.845"/>
<rect x="71.433" y="72.608" fill="#CDE8F9" width="45.797" height="121.702"/>
<rect x="131.11" y="63.49" fill="#FFFFFF" stroke="#706F6F" stroke-width="0.9786" stroke-miterlimit="10" width="97.862" height="146.793"/>
<rect x="136.981" y="69.362" fill="#CDE8F9" stroke="#706F6F" stroke-width="1.0532" stroke-miterlimit="10" width="86.118" height="135.049"/>
<rect x="68.126" y="69.362" fill="#FFFFFF" stroke="#706F6F" stroke-width="1.0295" stroke-miterlimit="10" width="57.112" height="134.855"/>
<rect x="73.658" y="75.234" fill="#CDE8F9" stroke="#706F6F" stroke-width="1.0909" stroke-miterlimit="10" width="45.708" height="123.306"/>
<path fill="none" stroke="#9D9D9C" stroke-width="0.4893" stroke-linecap="round" stroke-miterlimit="10" d="M96.773,69.687
	l27.964,192.99 M96.773,69.687L69.025,262.763 M125.01,165.752L68.572,69.885 M69.025,262.763l55.986-97.011"/>
<rect x="66.202" y="83.764" fill="#706F6F" width="1.468" height="11.743"/>
<rect x="66.21" y="161.26" fill="#706F6F" width="1.468" height="11.743"/>
<rect x="66.792" y="236.982" fill="#706F6F" width="1.468" height="11.743"/>
<path fill="#FFFFFF" stroke="#706F6F" stroke-width="0.5701" stroke-miterlimit="10" d="M123.328,140.191
	c0,0.831-0.48,1.505-1.072,1.505l0,0c-0.592,0-1.072-0.674-1.072-1.505v-14.045c0-0.831,0.48-1.505,1.072-1.505l0,0
	c0.592,0,1.072,0.674,1.072,1.505V140.191z"/>
<g>
	<line fill="none" x1="48.344" y1="210.283" x2="48.344" y2="63.251"/>
	<g>
		
			<line fill="none" stroke="#9D9D9C" stroke-width="0.4893" stroke-miterlimit="10" x1="48.344" y1="205.948" x2="48.344" y2="67.586"/>
		<g>
			<polygon fill="#9D9D9C" points="49.766,204.978 48.344,210.283 46.923,204.978 			"/>
		</g>
		<g>
			<polygon fill="#9D9D9C" points="49.766,68.556 48.344,63.251 46.923,68.556 			"/>
		</g>
	</g>
</g>
<text transform="matrix(0 -1 1 0 40.7948 151.5605)" fill="#646464" font-family="'Montserrat-Regular'" font-size="13.4619">1500</text>
<g>
	<line fill="none" x1="19.688" y1="269" x2="19.688" y2="63.251"/>
	<g>
		
			<line fill="none" stroke="#9D9D9C" stroke-width="0.4893" stroke-miterlimit="10" x1="19.688" y1="264.665" x2="19.688" y2="67.586"/>
		<g>
			<polygon fill="#9D9D9C" points="21.11,263.695 19.688,269 18.267,263.695 			"/>
		</g>
		<g>
			<polygon fill="#9D9D9C" points="21.11,68.556 19.688,63.251 18.267,68.556 			"/>
		</g>
	</g>
</g>
<text transform="matrix(0 -1 1 0 12.14 180.9219)" fill="#646464" font-family="'Montserrat-Regular'" font-size="13.4619">2100</text>
<g>
	<line fill="none" x1="62.606" y1="45.913" x2="131.109" y2="45.913"/>
	<g>
		
			<line fill="none" stroke="#9D9D9C" stroke-width="0.4893" stroke-miterlimit="10" x1="66.941" y1="45.913" x2="126.774" y2="45.913"/>
		<g>
			<polygon fill="#9D9D9C" points="67.911,47.335 62.606,45.913 67.911,44.491 			"/>
		</g>
		<g>
			<polygon fill="#9D9D9C" points="125.805,47.335 131.109,45.913 125.805,44.491 			"/>
		</g>
	</g>
</g>
<text transform="matrix(1 0 0 1 84.074 38.3811)" fill="#646464" font-family="'Montserrat-Regular'" font-size="13.46">700</text>
<g>
	<line fill="none" x1="62.606" y1="17.947" x2="228.822" y2="17.947"/>
	<g>
		
			<line fill="none" stroke="#9D9D9C" stroke-width="0.4893" stroke-miterlimit="10" x1="66.941" y1="17.947" x2="224.487" y2="17.947"/>
		<g>
			<polygon fill="#9D9D9C" points="67.911,19.369 62.606,17.947 67.911,16.526 			"/>
		</g>
		<g>
			<polygon fill="#9D9D9C" points="223.517,19.369 228.822,17.947 223.517,16.526 			"/>
		</g>
	</g>
</g>
<text transform="matrix(1 0 0 1 130.4079 10.4167)" fill="#646464" font-family="'Montserrat-Regular'" font-size="13.4619">1700</text>
</svg>
