<?xml version="1.0" encoding="utf-8"?>
<!-- Generator: Adobe Illustrator 17.0.0, SVG Export Plug-In . SVG Version: 6.00 Build 0)  -->
<!DOCTYPE svg PUBLIC "-//W3C//DTD SVG 1.1//EN" "http://www.w3.org/Graphics/SVG/1.1/DTD/svg11.dtd">
<svg version="1.1" xmlns="http://www.w3.org/2000/svg" xmlns:xlink="http://www.w3.org/1999/xlink" x="0px" y="0px"
	 width="214.39px" height="223.937px" viewBox="0 0 214.39 223.937" enable-background="new 0 0 214.39 223.937"
	 xml:space="preserve">
<g id="win_3" display="none">
	
		<rect x="46.807" y="75.936" display="inline" fill="#FFFFFF" stroke="#706F6F" stroke-width="0.9801" stroke-miterlimit="10" width="166.618" height="147.016"/>
	<rect x="55.647" y="85.543" display="inline" fill="#CDE8F9" width="149.091" height="128.231"/>
	<g display="inline">
		
			<line fill="none" stroke="#9D9D9C" stroke-width="0.4901" stroke-miterlimit="10" x1="78.353" y1="87.796" x2="97.332" y2="211.122"/>
		
			<line fill="none" stroke="#9D9D9C" stroke-width="0.4901" stroke-miterlimit="10" x1="58.927" y1="210.771" x2="78.353" y2="87.796"/>
		
			<line fill="none" stroke="#9D9D9C" stroke-width="0.4901" stroke-miterlimit="10" x1="97.574" y1="149.059" x2="58.78" y2="87.796"/>
		
			<line fill="none" stroke="#9D9D9C" stroke-width="0.4901" stroke-miterlimit="10" x1="97.574" y1="149.059" x2="58.927" y2="211.301"/>
	</g>
	<g display="inline">
		
			<line fill="none" stroke="#9D9D9C" stroke-width="0.4901" stroke-miterlimit="10" x1="162.422" y1="210.834" x2="181.37" y2="88.089"/>
		
			<line fill="none" stroke="#9D9D9C" stroke-width="0.4901" stroke-miterlimit="10" x1="181.37" y1="88.089" x2="200.796" y2="211.064"/>
		
			<line fill="none" stroke="#9D9D9C" stroke-width="0.4901" stroke-miterlimit="10" x1="200.944" y1="88.089" x2="162.149" y2="149.352"/>
		
			<line fill="none" stroke="#9D9D9C" stroke-width="0.4901" stroke-miterlimit="10" x1="200.945" y1="211.301" x2="162.149" y2="149.352"/>
	</g>
	<path display="inline" fill="#FFFFFF" stroke="#706F6F" stroke-width="0.9789" stroke-miterlimit="10" d="M155.792,81.913v135.255
		h51.683V81.913H155.792z M201.208,211.301h-39.204V87.808h39.204V211.301z"/>
	<path display="inline" fill="#FFFFFF" stroke="#706F6F" stroke-width="0.9789" stroke-miterlimit="10" d="M52.335,81.913v135.255
		h51.683V81.913H52.335z M97.75,211.301H58.546V87.808H97.75V211.301z"/>
	<rect x="201.665" y="99.718" display="inline" fill="#706F6F" width="1.47" height="11.761"/>
	<rect x="201.615" y="187.637" display="inline" fill="#706F6F" width="1.47" height="11.761"/>
	<path display="inline" fill="#FFFFFF" stroke="#706F6F" stroke-width="0.9789" stroke-miterlimit="10" d="M104.007,81.913v135.255
		h51.683V81.913H104.007z M149.422,211.301h-39.204V87.808h39.204V211.301z"/>
	<path display="inline" fill="#FFFFFF" stroke="#706F6F" stroke-width="0.4901" stroke-miterlimit="10" d="M102.029,156.751
		c0,0.875-0.48,1.585-1.074,1.585l0,0c-0.593,0-1.074-0.71-1.074-1.585v-14.798c0-0.875,0.48-1.585,1.074-1.585l0,0
		c0.593,0,1.074,0.71,1.074,1.585V156.751z"/>
	<rect x="50.407" y="99.707" display="inline" fill="#706F6F" width="1.47" height="11.761"/>
	<rect x="50.357" y="187.627" display="inline" fill="#706F6F" width="1.47" height="11.761"/>
	<path display="inline" fill="#FFFFFF" stroke="#706F6F" stroke-width="0.4901" stroke-miterlimit="10" d="M159.985,156.751
		c0,0.875-0.48,1.585-1.074,1.585l0,0c-0.593,0-1.074-0.71-1.074-1.585v-14.798c0-0.875,0.48-1.585,1.074-1.585l0,0
		c0.593,0,1.074,0.71,1.074,1.585V156.751z"/>
	<g>
		<line display="inline" fill="#999999" x1="46.807" y1="58.331" x2="213.275" y2="58.331"/>
		<g display="inline">
			
				<line fill="none" stroke="#9D9D9C" stroke-width="0.4901" stroke-miterlimit="10" x1="51.148" y1="58.331" x2="208.933" y2="58.331"/>
			<g>
				<polygon fill="#9D9D9C" points="52.12,59.755 46.807,58.331 52.12,56.908 				"/>
			</g>
			<g>
				<polygon fill="#9D9D9C" points="207.962,59.755 213.275,58.331 207.962,56.908 				"/>
			</g>
		</g>
	</g>
	<g>
		<line display="inline" fill="#999999" x1="29.412" y1="222.952" x2="29.412" y2="75.696"/>
		<g display="inline">
			
				<line fill="none" stroke="#9D9D9C" stroke-width="0.4609" stroke-miterlimit="10" x1="29.412" y1="218.868" x2="29.412" y2="79.78"/>
			<g>
				<polygon fill="#9D9D9C" points="30.751,217.955 29.412,222.952 28.073,217.955 				"/>
			</g>
			<g>
				<polygon fill="#9D9D9C" points="30.751,80.693 29.412,75.696 28.073,80.693 				"/>
			</g>
		</g>
	</g>
	<text transform="matrix(1 0 0 1 120.9336 48.7891)" fill="#646464" font-family="'Montserrat-Regular'" font-size="7.9525">1700</text>
	
		<text transform="matrix(4.489660e-11 -1 1 4.489660e-11 19.8487 157.2656)" fill="#646464" font-family="'Montserrat-Regular'" font-size="7.9525">1500</text>
</g>
<g id="win_2" display="none">
	
		<rect x="47.051" y="76.179" display="inline" fill="#FFFFFF" stroke="#706F6F" stroke-width="0.9785" stroke-miterlimit="10" width="166.339" height="146.769"/>
	<rect x="55.877" y="85.77" display="inline" fill="#CDE8F9" width="148.841" height="128.016"/>
	<path display="inline" fill="#FFFFFF" stroke="#706F6F" stroke-width="0.9773" stroke-miterlimit="10" d="M155.854,82.146v135.028
		h51.597V82.146H155.854z M201.193,211.318h-39.139V88.031h39.139V211.318z"/>
	<path display="inline" fill="#FFFFFF" stroke="#706F6F" stroke-width="0.9773" stroke-miterlimit="10" d="M52.57,82.146v135.028
		h51.597V82.146H52.57z M97.909,211.318H58.771V88.031h39.139V211.318z"/>
	
		<line display="inline" fill="none" stroke="#9D9D9C" stroke-width="0.4892" stroke-miterlimit="10" x1="110.81" y1="210.851" x2="129.954" y2="88.312"/>
	
		<line display="inline" fill="none" stroke="#9D9D9C" stroke-width="0.4892" stroke-miterlimit="10" x1="129.954" y1="88.312" x2="149.01" y2="210.851"/>
	
		<line display="inline" fill="none" stroke="#9D9D9C" stroke-width="0.4892" stroke-miterlimit="10" x1="149.495" y1="88.312" x2="110.523" y2="149.54"/>
	
		<line display="inline" fill="none" stroke="#9D9D9C" stroke-width="0.4892" stroke-miterlimit="10" x1="149.01" y1="210.851" x2="110.523" y2="149.54"/>
	<rect x="156.366" y="99.921" display="inline" fill="#706F6F" width="1.468" height="11.742"/>
	<rect x="156.316" y="187.693" display="inline" fill="#706F6F" width="1.468" height="11.742"/>
	<path display="inline" fill="#FFFFFF" stroke="#706F6F" stroke-width="0.9773" stroke-miterlimit="10" d="M104.155,82.146v135.028
		h51.597V82.146H104.155z M149.495,211.318h-39.139V88.031h39.139V211.318z"/>
	<path display="inline" fill="#FFFFFF" stroke="#706F6F" stroke-width="0.4892" stroke-miterlimit="10" d="M108.334,156.859
		c0,0.874-0.48,1.583-1.072,1.583l0,0c-0.592,0-1.072-0.709-1.072-1.583v-14.774c0-0.874,0.48-1.583,1.072-1.583l0,0
		c0.592,0,1.072,0.709,1.072,1.583V156.859z"/>
	<g display="inline">
		<line fill="#999999" x1="47.051" y1="61.604" x2="213.24" y2="61.604"/>
		<g>
			
				<line fill="none" stroke="#9D9D9C" stroke-width="0.4892" stroke-miterlimit="10" x1="51.386" y1="61.604" x2="208.906" y2="61.604"/>
			<g>
				<polygon fill="#9D9D9C" points="52.355,63.026 47.051,61.604 52.355,60.183 				"/>
			</g>
			<g>
				<polygon fill="#9D9D9C" points="207.937,63.026 213.24,61.604 207.937,60.183 				"/>
			</g>
		</g>
	</g>
	<g display="inline">
		<line fill="#999999" x1="32.686" y1="222.948" x2="32.686" y2="75.94"/>
		<g>
			
				<line fill="none" stroke="#9D9D9C" stroke-width="0.4601" stroke-miterlimit="10" x1="32.686" y1="218.872" x2="32.686" y2="80.016"/>
			<g>
				<polygon fill="#9D9D9C" points="34.022,217.96 32.686,222.948 31.349,217.96 				"/>
			</g>
			<g>
				<polygon fill="#9D9D9C" points="34.022,80.928 32.686,75.94 31.349,80.928 				"/>
			</g>
		</g>
	</g>
	
		<text transform="matrix(1 0 0 1 115.2726 53.0776)" display="inline" fill="#646464" font-family="'Montserrat-Regular'" font-size="13">1700</text>
	
		<text transform="matrix(4.489660e-11 -1 1 4.489660e-11 24.1378 164.3736)" display="inline" fill="#646464" font-family="'Montserrat-Regular'" font-size="13">1500</text>
</g>
<g id="win_1" display="none">
	
		<rect x="66.517" y="76.159" display="inline" fill="#FFFFFF" stroke="#706F6F" stroke-width="0.9198" stroke-miterlimit="10" width="146.873" height="146.873"/>
	<rect x="75.349" y="85.757" display="inline" fill="#CDE8F9" width="128.432" height="128.106"/>
	<path display="inline" fill="#FFFFFF" stroke="#706F6F" stroke-width="1.1181" stroke-miterlimit="10" d="M72.04,82.131v135.123
		h67.493V82.131H72.04z M133.658,211.393H78.245V88.02h55.413V211.393z"/>
	
		<line display="inline" fill="none" stroke="#9D9D9C" stroke-width="0.4896" stroke-miterlimit="10" x1="145.837" y1="211.393" x2="173.384" y2="87.977"/>
	
		<line display="inline" fill="none" stroke="#9D9D9C" stroke-width="0.4896" stroke-miterlimit="10" x1="173.384" y1="87.977" x2="200.543" y2="211.393"/>
	
		<line display="inline" fill="none" stroke="#9D9D9C" stroke-width="0.4896" stroke-miterlimit="10" x1="200.874" y1="88.301" x2="145.837" y2="149.729"/>
	
		<line display="inline" fill="none" stroke="#9D9D9C" stroke-width="0.4896" stroke-miterlimit="10" x1="200.543" y1="211.393" x2="145.837" y2="149.729"/>
	<rect x="207.905" y="99.919" display="inline" fill="#706F6F" width="1.469" height="11.75"/>
	<rect x="207.898" y="187.752" display="inline" fill="#706F6F" width="1.469" height="11.75"/>
	<path display="inline" fill="#FFFFFF" stroke="#706F6F" stroke-width="1.1214" stroke-miterlimit="10" d="M139.532,82.131v135.123
		h67.889V82.131H139.532z M201.159,211.393h-55.752V88.02h55.752V211.393z"/>
	<path display="inline" fill="#FFFFFF" stroke="#706F6F" stroke-width="0.4896" stroke-miterlimit="10" d="M143.557,156.896
		c0,0.874-0.48,1.584-1.073,1.584l0,0c-0.592,0-1.073-0.709-1.073-1.584v-14.784c0-0.874,0.48-1.584,1.073-1.584l0,0
		c0.592,0,1.073,0.709,1.073,1.584V156.896z"/>
	<g display="inline">
		<line fill="#999999" x1="66.517" y1="58.572" x2="213.39" y2="58.572"/>
		<g>
			
				<line fill="none" stroke="#9D9D9C" stroke-width="0.4601" stroke-miterlimit="10" x1="70.593" y1="58.572" x2="209.314" y2="58.572"/>
			<g>
				<polygon fill="#9D9D9C" points="71.505,59.909 66.517,58.572 71.505,57.236 				"/>
			</g>
			<g>
				<polygon fill="#9D9D9C" points="208.402,59.909 213.39,58.572 208.402,57.236 				"/>
			</g>
		</g>
	</g>
	<g display="inline">
		<line fill="#999999" x1="49.139" y1="223.032" x2="49.139" y2="75.92"/>
		<g>
			
				<line fill="none" stroke="#9D9D9C" stroke-width="0.4605" stroke-miterlimit="10" x1="49.139" y1="218.953" x2="49.139" y2="80"/>
			<g>
				<polygon fill="#9D9D9C" points="50.477,218.04 49.139,223.032 47.802,218.04 				"/>
			</g>
			<g>
				<polygon fill="#9D9D9C" points="50.477,80.912 49.139,75.92 47.802,80.912 				"/>
			</g>
		</g>
	</g>
	
		<text transform="matrix(1 0 0 1 124.8979 53.1641)" display="inline" fill="#646464" font-family="'Montserrat-Regular'" font-size="13">1500</text>
	
		<text transform="matrix(4.489659e-11 -1 1 4.489659e-11 40.5916 164.1598)" display="inline" fill="#646464" font-family="'Montserrat-Regular'" font-size="13">1500</text>
</g>
<g id="Слой_3">
	
		<rect x="66.587" y="37.329" fill="#FFFFFF" stroke="#706F6F" stroke-width="1.0342" stroke-miterlimit="10" width="146.741" height="185.872"/>
	<rect x="75.411" y="93.847" fill="#CDE8F9" width="128.317" height="120.194"/>
	<path fill="#FFFFFF" stroke="#706F6F" stroke-width="1.0878" stroke-miterlimit="10" d="M72.104,89.135v128.004h67.432V89.135
		H72.104z M133.667,211.459H78.304V94.918h55.363V211.459z"/>
	
		<line fill="none" stroke="#9D9D9C" stroke-width="0.4891" stroke-miterlimit="10" x1="145.921" y1="211.459" x2="173.013" y2="95.329"/>
	
		<line fill="none" stroke="#9D9D9C" stroke-width="0.4891" stroke-miterlimit="10" x1="173.013" y1="95.329" x2="200.589" y2="211.037"/>
	
		<line fill="none" stroke="#9D9D9C" stroke-width="0.4891" stroke-miterlimit="10" x1="201.108" y1="94.918" x2="145.745" y2="153.092"/>
	
		<line fill="none" stroke="#9D9D9C" stroke-width="0.4891" stroke-miterlimit="10" x1="200.852" y1="211.322" x2="145.745" y2="153.092"/>
	<rect x="207.848" y="102.744" fill="#706F6F" width="1.467" height="11.739"/>
	<rect x="207.842" y="187.953" fill="#706F6F" width="1.467" height="11.739"/>
	<path fill="#FFFFFF" stroke="#706F6F" stroke-width="1.091" stroke-miterlimit="10" d="M139.537,89.135v128.004h67.828V89.135
		H139.537z M201.108,211.459h-55.702V94.918h55.702V211.459z"/>
	<path fill="#FFFFFF" stroke="#706F6F" stroke-width="0.4891" stroke-miterlimit="10" d="M143.558,160.576
		c0,0.874-0.479,1.582-1.072,1.582l0,0c-0.592,0-1.072-0.709-1.072-1.582v-14.771c0-0.874,0.479-1.582,1.072-1.582l0,0
		c0.592,0,1.072,0.709,1.072,1.582V160.576z"/>
	
		<rect x="72.457" y="43.199" fill="#CDE8F9" stroke="#706F6F" stroke-width="0.9918" stroke-miterlimit="10" width="134.908" height="40.066"/>
	<g id="размер_ширина">
		<g>
			<line fill="#999999" x1="66.587" y1="19.934" x2="213.328" y2="19.934"/>
			<g>
				
					<line fill="none" stroke="#9D9D9C" stroke-width="0.4597" stroke-miterlimit="10" x1="70.659" y1="19.934" x2="209.256" y2="19.934"/>
				<g>
					<polygon fill="#9D9D9C" points="71.57,21.269 66.587,19.934 71.57,18.598 					"/>
				</g>
				<g>
					<polygon fill="#9D9D9C" points="208.345,21.269 213.328,19.934 208.345,18.598 					"/>
				</g>
			</g>
		</g>
		<text transform="matrix(1 0 0 1 125.9118 10.4067)" fill="#646464" font-family="'Montserrat-Regular'" font-size="13">1500</text>
	</g>
	<g id="размер_высота_1">
		<g>
			<line fill="#999999" x1="19.223" y1="223.937" x2="19.223" y2="37.329"/>
			<g>
				
					<line fill="none" stroke="#9D9D9C" stroke-width="0.5184" stroke-miterlimit="10" x1="19.223" y1="219.345" x2="19.223" y2="41.922"/>
				<g>
					<polygon fill="#9D9D9C" points="20.729,218.318 19.223,223.937 17.717,218.318 					"/>
				</g>
				<g>
					<polygon fill="#9D9D9C" points="20.729,42.949 19.223,37.329 17.717,42.949 					"/>
				</g>
			</g>
		</g>
		
			<text transform="matrix(4.489659e-11 -1 1 4.489659e-11 9.6778 145.0458)" fill="#646464" font-family="'Montserrat-Regular'" font-size="13">1900</text>
	</g>
	<g id="размер_высота_2">
		<g>
			<line fill="#999999" x1="49.224" y1="83.265" x2="49.224" y2="37.329"/>
			<g>
				
					<line fill="none" stroke="#9D9D9C" stroke-width="0.5187" stroke-miterlimit="10" x1="49.224" y1="78.669" x2="49.224" y2="41.925"/>
				<g>
					<polygon fill="#9D9D9C" points="50.731,77.641 49.224,83.265 47.717,77.641 					"/>
				</g>
				<g>
					<polygon fill="#9D9D9C" points="50.731,42.953 49.224,37.329 47.717,42.953 					"/>
				</g>
			</g>
		</g>
		
			<text transform="matrix(4.489659e-11 -1 1 4.489659e-11 39.6797 75.0414)" fill="#646464" font-family="'Montserrat-Regular'" font-size="13">500</text>
	</g>
</g>
</svg>
